<?xml version="1.0" ?>
<!DOCTYPE svg PUBLIC "-//W3C//DTD SVG 1.1//EN" "http://www.w3.org/Graphics/SVG/1.1/DTD/svg11.dtd">
<svg xmlns="http://www.w3.org/2000/svg" width="42.652" height="40" viewBox="0 0 42.652 40"><path d="M264.815,147.272a1.3,1.3,0,0,1-1.292,1H238.273l.834,4h25.166a1.334,1.334,0,1,1,0,2.668H238.065c-.789,0-1.205-.334-1.331-.959l-5.791-28.372h-4a1.334,1.334,0,0,1,0-2.668h5.086a1.288,1.288,0,0,1,1.289,1.042l.875,4.29h32.75a1.308,1.308,0,0,1,1.289,1.626Zm-27.08-1.668h24.7l2.877-14.664H234.733Zm1.206,12a2.668,2.668,0,1,1-2.665,2.668A2.687,2.687,0,0,1,238.94,157.6Zm22.668,0a2.668,2.668,0,1,1-2.668,2.668A2.684,2.684,0,0,1,261.608,157.6Z" transform="translate(-225.607 -122.94)" fill="#fff"/></svg>