<?xml version="1.0" ?>
<!DOCTYPE svg PUBLIC "-//W3C//DTD SVG 1.1//EN" "http://www.w3.org/Graphics/SVG/1.1/DTD/svg11.dtd">
<svg xmlns="http://www.w3.org/2000/svg" width="21.334" height="16" viewBox="0 0 21.334 16">
  <path id="Trazado_1175" data-name="Trazado 1175" d="M156.131,373.059a.738.738,0,0,1-.732.734h-2.467v1.4a.739.739,0,0,1-.734.732H138.73a.738.738,0,0,1-.732-.732V364.926a.739.739,0,0,1,.732-.734H141.2v-1.4a.74.74,0,0,1,.734-.734H144.4v-1.4a.74.74,0,0,1,.734-.734H158.6a.74.74,0,0,1,.734.734v10.266a.74.74,0,0,1-.734.734h-2.467Zm-17.067-7.8v9.6h12.8v-9.6Zm3.2-2.133v1.066H152.2a.74.74,0,0,1,.734.734v7.8h2.133v-9.6Zm3.2-2.135v1.067H155.4a.739.739,0,0,1,.732.734v7.8h2.135v-9.6Z" transform="translate(-137.998 -359.926)"/>
</svg>
