<?xml version="1.0" ?>
<!DOCTYPE svg PUBLIC "-//W3C//DTD SVG 1.1//EN" "http://www.w3.org/Graphics/SVG/1.1/DTD/svg11.dtd">
<svg xmlns="http://www.w3.org/2000/svg" width="11.653" height="14" viewBox="0 0 11.653 14">
  <path id="Trazado_1194" data-name="Trazado 1194" d="M302.433,416.654a.4.4,0,0,1,.292.119l6.138,5.94a.433.433,0,0,1,.119.3.4.4,0,0,1-.119.292l-1.141,1.14,1.194,1.711a.4.4,0,0,1,.08.251.394.394,0,0,1-.186.359l-5.727,3.818a.358.358,0,0,1-.226.065.41.41,0,0,1-.344-.172l-4.68-7.225a.478.478,0,0,1-.053-.358l.08-.438-.424-.45a.365.365,0,0,1-.093-.265v-4.667a.419.419,0,0,1,.424-.424Zm-4.243,4.932,5.516,5.714,4.241-4.282-5.687-5.515h-4.07ZM303.4,428.2l-4.123-4.282,3.7,5.714,5-3.327-.862-1.233L304,428.214a.374.374,0,0,1-.291.107A.369.369,0,0,1,303.4,428.2Zm-3.09-9.427a.646.646,0,0,1,.637.637.629.629,0,0,1-.637.637.613.613,0,0,1-.637-.637A.628.628,0,0,1,300.312,418.775Z" transform="translate(-297.343 -416.654)"/>
</svg>
