<?xml version="1.0" ?>
<!DOCTYPE svg PUBLIC "-//W3C//DTD SVG 1.1//EN" "http://www.w3.org/Graphics/SVG/1.1/DTD/svg11.dtd">
<svg xmlns="http://www.w3.org/2000/svg" width="85.212" height="90" viewBox="0 0 85.212 90">
  <path id="Trazado_1196" data-name="Trazado 1196" d="M136.718,282.466a2.752,2.752,0,0,1,2.664,1.865,42.584,42.584,0,1,1-30.624-27.161,2.84,2.84,0,1,1-1.421,5.5,39.464,39.464,0,0,0-8.074-.888A36.926,36.926,0,1,0,136.185,298.7a36.464,36.464,0,0,0-2.131-12.426A2.817,2.817,0,0,1,136.718,282.466ZM77.867,290.9a6.041,6.041,0,0,1-1.325-3.73,5.711,5.711,0,0,1,5.676-5.676,5.493,5.493,0,0,1,4.352,2.043l14.024,18.724,24.852-47.838a5.676,5.676,0,0,1,10.738,2.575,6.145,6.145,0,0,1-.444,2.213l-29.2,56.186a5.72,5.72,0,0,1-5.055,3.108,5.215,5.215,0,0,1-4.352-1.954Z" transform="translate(-56.657 -251.309)" fill="#f59b00"/>
</svg>
