<?xml version="1.0" ?>
<!DOCTYPE svg PUBLIC "-//W3C//DTD SVG 1.1//EN" "http://www.w3.org/Graphics/SVG/1.1/DTD/svg11.dtd">
<svg xmlns="http://www.w3.org/2000/svg" viewBox="0 0 16 16">
  <path id="Trazado_1015" data-name="Trazado 1015" d="M173.77,130.894c-.28,0-.764-.016-1.235-.016a1.562,1.562,0,0,0-1.059.5l-6.1,6.1a2.392,2.392,0,0,1-3.383-3.383l6.1-6.1a1.361,1.361,0,0,0,.5-1.059c0-.221-.016-.558-.016-1.235a3.541,3.541,0,0,1,3.53-3.53,3.456,3.456,0,0,1,1.617.4.48.48,0,0,1,.265.427.454.454,0,0,1-.147.338l-1.514,1.514.484,1.81,1.81.484,1.514-1.514a.454.454,0,0,1,.338-.147.464.464,0,0,1,.427.265,3.327,3.327,0,0,1,.4,1.617A3.541,3.541,0,0,1,173.77,130.894Zm-9.059,5.926,6.1-6.1a2.174,2.174,0,0,1,1.72-.78c.352,0,.764.015,1.235.015a2.592,2.592,0,0,0,2.588-2.588,2.328,2.328,0,0,0-.059-.559L175.124,128a.484.484,0,0,1-.471.132l-2.382-.647a.385.385,0,0,1-.28-.28l-.647-2.368a.472.472,0,0,1,.132-.471l1.192-1.191a3.107,3.107,0,0,0-.559-.059,2.592,2.592,0,0,0-2.588,2.588c0,.425.015.911.015,1.235a2.1,2.1,0,0,1-.78,1.72l-6.1,6.1a1.456,1.456,0,0,0,2.059,2.06Z" transform="translate(-161.3 -122.172)"/>
</svg>
