<?xml version="1.0" ?>
<!DOCTYPE svg PUBLIC "-//W3C//DTD SVG 1.1//EN" "http://www.w3.org/Graphics/SVG/1.1/DTD/svg11.dtd">
<svg xmlns="http://www.w3.org/2000/svg" viewBox="0 0 16 16">
  <path id="Trazado_1018" data-name="Trazado 1018" d="M211.487,137.349a2.809,2.809,0,0,1-1.985.823,2.771,2.771,0,0,1-1.985-.823l-5.662-5.662a2.76,2.76,0,0,1-.823-1.985V125a2.824,2.824,0,0,1,2.823-2.824h4.706a2.787,2.787,0,0,1,1.986.824l5.661,5.661a2.805,2.805,0,0,1-.015,3.986Zm-3.309-.662a1.9,1.9,0,0,0,1.324.544,1.871,1.871,0,0,0,1.324-.544l4.7-4.706a1.881,1.881,0,0,0,.015-2.662l-5.661-5.661a1.786,1.786,0,0,0-1.324-.544h-4.706A1.877,1.877,0,0,0,201.972,125V129.7a1.835,1.835,0,0,0,.544,1.324Zm-3.853-9.809a1.411,1.411,0,1,1,1.413-1.411A1.412,1.412,0,0,1,204.325,126.878Zm0-1.882a.471.471,0,1,0,.471.471A.465.465,0,0,0,204.325,125Zm4.544,1.867a.622.622,0,0,1,.633-.676.63.63,0,0,1,.633.676l-.177,4.956a.466.466,0,0,1-.456.441.446.446,0,0,1-.456-.441Zm.633,6.28a.632.632,0,1,1-.633.631A.627.627,0,0,1,209.5,133.144Z" transform="translate(-201.032 -122.172)"/>
</svg>
