<?xml version="1.0" ?>
<!DOCTYPE svg PUBLIC "-//W3C//DTD SVG 1.1//EN" "http://www.w3.org/Graphics/SVG/1.1/DTD/svg11.dtd">
<svg xmlns="http://www.w3.org/2000/svg" width="150" height="167.511" viewBox="0 0 150 167.511">
  <g id="Grupo_755" data-name="Grupo 755" transform="translate(-96.363 -176.362)">
    <g id="Grupo_681" data-name="Grupo 681" transform="translate(123.965 176.362)">
      <path id="Trazado_1012" data-name="Trazado 1012" d="M142.443,343.873a5.546,5.546,0,0,0,5.564-5.758V323.108c0-7.153-2.088-9.6-5.043-12.214l-10.257-9.423c-3.826-3.664-6.956-8.2-6.956-13.785V243.366c5.912,0,11.127,4.536,11.127,10.12v17.8a5.564,5.564,0,1,0,11.128,0V193.113a5.5,5.5,0,0,1,5.563-5.584,5.4,5.4,0,0,1,5.564,5.584v51.124a5.563,5.563,0,1,0,11.127,0v-6.456a5.563,5.563,0,1,1,11.127,0v9.6a5.564,5.564,0,1,0,11.128,0v-4.014a5.611,5.611,0,0,1,5.563-5.584,5.5,5.5,0,0,1,5.564,5.584V249.3a5.563,5.563,0,1,0,11.127,0v-.348a5.5,5.5,0,0,1,5.564-5.584,5.4,5.4,0,0,1,5.563,5.584v38.912c0,17.273-10.779,23.032-10.779,35.246v15.181a5.563,5.563,0,1,0,11.127,0V323.108c0-6.979,10.779-16.4,10.779-35.246V248.951A16.951,16.951,0,0,0,220.333,232.2a17.877,17.877,0,0,0-8.347,1.918,16.568,16.568,0,0,0-13.908-7.5,16.278,16.278,0,0,0-8.171,2.094,17.133,17.133,0,0,0-14.083-7.677,15.759,15.759,0,0,0-5.564,1.047V193.113a16.691,16.691,0,1,0-33.382,0v42.051a21.652,21.652,0,0,0-11.127-2.965h-5.563a5.5,5.5,0,0,0-5.564,5.583v49.9c0,7.852,3.476,15.53,9.735,21.463l10.432,9.772c1.043,1.047,2.086,1.918,2.086,4.362v14.831A5.546,5.546,0,0,0,142.443,343.873Z" transform="translate(-114.625 -176.362)" fill="#fff"/>
    </g>
    <path id="Trazado_1013" data-name="Trazado 1013" d="M108.2,205.132l-10.61-10.706a4.262,4.262,0,0,1-1.23-2.991h0a1.882,1.882,0,0,1,.042-.2,4.263,4.263,0,0,1,.283-1.407,3.988,3.988,0,0,1,.234-.331,4.212,4.212,0,0,1,.65-1l10.61-10.848a4.1,4.1,0,0,1,5.871,0,4.283,4.283,0,0,1,0,5.979l-3.546,3.611h18.254a4.224,4.224,0,0,1,0,8.446h-18.15l3.455,3.443a4.281,4.281,0,0,1,.036,5.976,4.1,4.1,0,0,1-5.868.035Zm121.37-13.824h0c0,.106-.049.19-.055.295a4.325,4.325,0,0,1-.263,1.338,4.085,4.085,0,0,1-.38.585,4.2,4.2,0,0,1-.5.774l-10.61,10.819a4.1,4.1,0,0,1-5.871,0,4.283,4.283,0,0,1,0-5.979h0l3.538-3.6H197.179a4.225,4.225,0,0,1,0-8.448h18.157l-3.457-3.449a4.281,4.281,0,0,1-.034-5.976,4.1,4.1,0,0,1,5.868-.035h0l10.609,10.678h0a4.256,4.256,0,0,1,1.223,2.984Z" transform="translate(0 0.025)" fill="#fff"/>
  </g>
</svg>
