<svg xmlns="http://www.w3.org/2000/svg" width="55.764" height="50" viewBox="0 0 55.764 50">
  <path id="Trazado_1014" data-name="Trazado 1014" d="M38.5,91.726a6.223,6.223,0,0,1-6.348-6.25,6.555,6.555,0,0,1,1.025-3.465L54.615,44.851a6.263,6.263,0,0,1,10.841,0L86.892,82.01a6.57,6.57,0,0,1,1.025,3.465,6.224,6.224,0,0,1-6.348,6.25ZM62.721,46.365a3.089,3.089,0,0,0-5.371,0L35.768,83.718a3.736,3.736,0,0,0-.488,1.758A3.151,3.151,0,0,0,38.551,88.6H81.519a3.151,3.151,0,0,0,3.273-3.125,3.717,3.717,0,0,0-.49-1.758Zm-4.883,9.374a2.205,2.205,0,1,1,4.395,0l-.586,20.656a1.612,1.612,0,0,1-3.223,0Zm2.2,25.441a2.2,2.2,0,1,1-2.2,2.2A2.187,2.187,0,0,1,60.035,81.18Z" transform="translate(-32.154 -41.726)"/>
</svg>
