<?xml version="1.0" ?>
<!DOCTYPE svg PUBLIC "-//W3C//DTD SVG 1.1//EN" "http://www.w3.org/Graphics/SVG/1.1/DTD/svg11.dtd">
<svg xmlns="http://www.w3.org/2000/svg" width="40" height="40" viewBox="0 0 40 40"><g transform="translate(-324.271 -289.423)"><path d="M338.021,289.423a13.77,13.77,0,0,1,13.75,13.75,13.558,13.558,0,0,1-2.422,7.774l14.571,14.57a1.239,1.239,0,0,1,.352.9,1.213,1.213,0,0,1-.352.859l-1.8,1.8a1.273,1.273,0,0,1-1.757,0l-14.57-14.57a13.561,13.561,0,0,1-7.774,2.422,13.75,13.75,0,1,1,0-27.5Zm0,25a11.25,11.25,0,1,0-11.25-11.25A11.254,11.254,0,0,0,338.021,314.423Z" fill="#fff"/></g></svg>