<?xml version="1.0" ?>
<!DOCTYPE svg PUBLIC "-//W3C//DTD SVG 1.1//EN" "http://www.w3.org/Graphics/SVG/1.1/DTD/svg11.dtd">
<svg xmlns="http://www.w3.org/2000/svg" width="29.863" height="40" viewBox="0 0 29.863 40"><path d="M216.469,160.82a1.268,1.268,0,0,1-.845-1.273c0-8.061,1.27-13.236,3.18-15.145a8.3,8.3,0,0,1,3.82-2.119,1.363,1.363,0,0,1,1.4.255,10.178,10.178,0,0,0,13.066,0,1.369,1.369,0,0,1,1.4-.255A8.267,8.267,0,0,1,242.3,144.4c1.91,1.91,3.183,7.085,3.183,15.145a1.271,1.271,0,0,1-.849,1.273,44.485,44.485,0,0,1-28.169,0Zm14.084-13.193a12.191,12.191,0,0,1-7.764-2.547,5.721,5.721,0,0,0-1.949,1.146c-1.273,1.273-2.334,5.047-2.5,12.344a41.8,41.8,0,0,0,24.434,0c-.17-7.3-1.227-11.071-2.5-12.344a5.706,5.706,0,0,0-1.952-1.146A12.183,12.183,0,0,1,230.554,147.626Zm8.316-16.245c0,3.986-2.037,10.816-8.316,10.816s-8.312-6.83-8.312-10.816c0-3.778,1.4-8.273,8.312-8.273S238.869,127.6,238.869,131.381Zm-13.915,0c0,3.137,1.486,8.1,5.6,8.1s5.6-4.962,5.6-8.1c0-3.268-1.061-5.56-5.6-5.56S224.955,128.113,224.955,131.381Z" transform="translate(-215.624 -123.108)" fill="#fff"/></svg>