<?xml version="1.0" ?>
<!DOCTYPE svg PUBLIC "-//W3C//DTD SVG 1.1//EN" "http://www.w3.org/Graphics/SVG/1.1/DTD/svg11.dtd">
<svg xmlns="http://www.w3.org/2000/svg" width="16" height="16" viewBox="0 0 16 16">
  <path id="Trazado_1177" data-name="Trazado 1177" d="M135.022,452.818a8,8,0,1,1,8,8A8,8,0,0,1,135.022,452.818Zm8-6.934a6.933,6.933,0,1,0,6.934,6.934A6.928,6.928,0,0,0,143.022,445.885Zm.534,7.467v3.733a.533.533,0,0,1-1.066,0v-3.733h-3.734a.534.534,0,1,1,0-1.067h3.734v-3.732a.533.533,0,1,1,1.066,0v3.732h3.734a.534.534,0,0,1,0,1.067Z" transform="translate(-135.022 -444.818)" fill="#8c0014"/>
</svg>
