<svg xmlns="http://www.w3.org/2000/svg" width="50" height="40.477" viewBox="0 0 50 40.477">
  <path id="Trazado_2035" data-name="Trazado 2035" d="M296.868,404.174a1.112,1.112,0,0,1-.745-1.117c0-7.066,1.117-11.6,2.789-13.279a7.255,7.255,0,0,1,3.35-1.861,1.2,1.2,0,0,1,1.228.223,8.912,8.912,0,0,0,11.456,0,1.208,1.208,0,0,1,1.232-.223,7.26,7.26,0,0,1,3.347,1.861c1.675,1.675,2.789,6.213,2.789,13.279a1.112,1.112,0,0,1-.745,1.117,38.946,38.946,0,0,1-24.7,0Zm12.352-11.57a10.667,10.667,0,0,1-6.809-2.233,4.955,4.955,0,0,0-1.712,1.008c-1.117,1.114-2.047,4.423-2.193,10.823a36.659,36.659,0,0,0,21.428,0c-.149-6.4-1.08-9.709-2.2-10.823a4.928,4.928,0,0,0-1.712-1.008A10.658,10.658,0,0,1,309.219,392.6Zm7.289-14.247c0,3.5-1.784,9.486-7.289,9.486s-7.293-5.99-7.293-9.486c0-3.31,1.228-7.255,7.293-7.255S316.509,375.047,316.509,378.356Zm-12.2,0c0,2.751,1.3,7.1,4.91,7.1s4.91-4.352,4.91-7.1c0-2.866-.931-4.873-4.91-4.873S304.309,375.49,304.309,378.356Zm21.726,16.853a1.1,1.1,0,0,1-.819.335,1.176,1.176,0,0,1-1.191-1.191,1.078,1.078,0,0,1,.335-.819l2.457-2.454a3.082,3.082,0,0,0,.965-2.308v-1.824a7.814,7.814,0,0,1,7.814-7.814,7.291,7.291,0,0,1,3.905,1.117,1.354,1.354,0,0,1,.558,1.079,1.469,1.469,0,0,1-.372.931l-3.124,3.127.707,2.6,2.606.707L343,385.575a1.462,1.462,0,0,1,.931-.375,1.317,1.317,0,0,1,1.083.562,7.069,7.069,0,0,1,1.114,3.905,7.809,7.809,0,0,1-7.811,7.811h-1.824a3.294,3.294,0,0,0-2.3.968l-11.611,11.682a5.2,5.2,0,0,1-3.645,1.452,5.119,5.119,0,0,1-3.608-1.452,1.163,1.163,0,0,1-.375-.856,1.187,1.187,0,0,1,2.013-.856,2.878,2.878,0,0,0,3.98-.034l11.57-11.61a5.4,5.4,0,0,1,3.98-1.672h1.824a5.416,5.416,0,0,0,5.432-5.431,6.505,6.505,0,0,0-.149-1.3l-2.457,2.494a1.3,1.3,0,0,1-1.191.335l-4.054-1.117a.973.973,0,0,1-.707-.707l-1.117-4.02a1.253,1.253,0,0,1,.335-1.188l2.494-2.494a5.986,5.986,0,0,0-1.3-.149,5.416,5.416,0,0,0-5.431,5.431v1.824a5.348,5.348,0,0,1-1.672,3.98Z" transform="translate(-296.123 -371.101)" fill="#f59b00"/>
</svg>
