<svg xmlns="http://www.w3.org/2000/svg" width="36.467" height="40.35" viewBox="0 0 36.467 40.35">
  <g id="Grupo_1130" data-name="Grupo 1130" transform="translate(-239.029 -463.025)">
    <path id="Trazado_2036" data-name="Trazado 2036" d="M249.585,490.38a.74.74,0,0,1-.494-.741c0-4.7.741-7.713,1.854-8.826a4.79,4.79,0,0,1,2.223-1.235.791.791,0,0,1,.817.148,5.93,5.93,0,0,0,7.614,0,.793.793,0,0,1,.817-.148,4.818,4.818,0,0,1,2.226,1.235c1.11,1.113,1.854,4.126,1.854,8.826a.74.74,0,0,1-.494.741,25.923,25.923,0,0,1-16.416,0Zm8.206-7.689a7.11,7.11,0,0,1-4.525-1.482,3.28,3.28,0,0,0-1.136.668c-.741.741-1.36,2.941-1.459,7.192a24.358,24.358,0,0,0,14.239,0c-.1-4.251-.715-6.451-1.459-7.192a3.249,3.249,0,0,0-1.136-.668A7.11,7.11,0,0,1,257.791,482.691Zm4.844-9.468c0,2.325-1.186,6.306-4.844,6.306s-4.844-3.981-4.844-6.306c0-2.2.817-4.818,4.844-4.818S262.636,471.023,262.636,473.223Zm-8.108,0c0,1.831.866,4.722,3.263,4.722s3.264-2.891,3.264-4.722c0-1.9-.619-3.237-3.264-3.237S254.528,471.32,254.528,473.223Z" transform="translate(8.651 11.311)" fill="#f59b00" stroke="#f59b00" stroke-miterlimit="10" stroke-width="0.7"/>
    <path id="Trazado_2037" data-name="Trazado 2037" d="M279.962,477.324a1.124,1.124,0,0,1,.421.866,1.377,1.377,0,0,1-1.5,1.265,1.62,1.62,0,0,1-1.025-.356l-15.425-13.034L247.478,478.7v19.709h10.468a1.283,1.283,0,1,1,0,2.529H245.982a1.377,1.377,0,0,1-1.5-1.265V478.19a1.214,1.214,0,0,1,.421-.909l16.454-13.9a1.638,1.638,0,0,1,1.076-.356,1.729,1.729,0,0,1,1.076.356Z" transform="translate(-5.456 0)" fill="#f59b00"/>
  </g>
</svg>
